<svg width="343" height="65" viewBox="0 0 343 65" fill="none" xmlns="http://www.w3.org/2000/svg">
<g clip-path="url(#clip0_604_25)">
<g filter="url(#filter0_b_604_25)">
<path d="M1 74H396V2H1V74Z" fill="black" fill-opacity="0.3"/>
</g>
<g filter="url(#filter1_dddd_604_25)">
<path d="M145.094 29.6065L141.92 40.5889H138.293L143.275 25.5542H145.714L145.094 29.6065ZM148.037 40.5889L144.797 29.6194L144.165 25.5542H146.669L151.676 40.5889H148.037ZM148.282 34.988V37.711H141.184V34.988H148.282ZM158.735 34.3298H155.38L155.354 31.8004H158.4C158.752 31.8004 159.041 31.7445 159.264 31.6326C159.497 31.5122 159.669 31.3358 159.78 31.1035C159.892 30.8626 159.948 30.5701 159.948 30.2259C159.948 29.8302 159.892 29.5118 159.78 29.2709C159.677 29.0214 159.514 28.8408 159.29 28.7289C159.075 28.6171 158.804 28.5612 158.477 28.5612H156.696V40.5889H153.083V25.5542H158.18C159.023 25.5542 159.78 25.6403 160.452 25.8123C161.123 25.9844 161.69 26.2425 162.155 26.5866C162.62 26.9308 162.972 27.3653 163.213 27.8901C163.463 28.4063 163.587 29.0128 163.587 29.7097C163.587 30.3206 163.458 30.9013 163.2 31.4519C162.951 32.0026 162.538 32.4499 161.961 32.7941C161.385 33.1382 160.606 33.306 159.626 33.2974L158.735 34.3298ZM158.606 40.5889H154.451L155.741 37.5948H158.606C159.01 37.5948 159.324 37.5217 159.548 37.3755C159.772 37.2206 159.931 37.0227 160.026 36.7818C160.129 36.5409 160.18 36.2828 160.18 36.0075C160.18 35.6548 160.133 35.3579 160.039 35.117C159.944 34.8675 159.793 34.674 159.587 34.5363C159.38 34.3986 159.096 34.3298 158.735 34.3298H155.896L155.909 31.8004H159.238L160.09 32.8328C161.054 32.7554 161.802 32.893 162.336 33.2458C162.869 33.5899 163.248 34.0416 163.471 34.6008C163.695 35.16 163.807 35.7193 163.807 36.2785C163.807 37.027 163.695 37.6723 163.471 38.2143C163.256 38.7563 162.929 39.2037 162.491 39.5564C162.06 39.9006 161.518 40.1587 160.864 40.3308C160.219 40.5028 159.466 40.5889 158.606 40.5889ZM177.757 32.7941V33.3619C177.757 34.5062 177.607 35.5386 177.306 36.4592C177.013 37.3712 176.6 38.1541 176.067 38.8079C175.533 39.4532 174.897 39.9479 174.157 40.292C173.426 40.6276 172.621 40.7954 171.744 40.7954C170.857 40.7954 170.044 40.6276 169.305 40.292C168.573 39.9479 167.937 39.4532 167.395 38.8079C166.853 38.1541 166.431 37.3712 166.13 36.4592C165.829 35.5386 165.678 34.5062 165.678 33.3619V32.7941C165.678 31.6412 165.829 30.6088 166.13 29.6968C166.431 28.7762 166.848 27.9933 167.382 27.3481C167.924 26.7028 168.56 26.2081 169.292 25.864C170.023 25.5198 170.832 25.3477 171.718 25.3477C172.587 25.3477 173.391 25.5198 174.131 25.864C174.88 26.2081 175.525 26.7028 176.067 27.3481C176.609 27.9933 177.026 28.7762 177.319 29.6968C177.611 30.6088 177.757 31.6412 177.757 32.7941ZM174.131 33.3619V32.7554C174.131 32.0499 174.075 31.4261 173.963 30.8841C173.851 30.3335 173.692 29.8689 173.486 29.4903C173.279 29.1118 173.026 28.8279 172.724 28.6386C172.432 28.4407 172.096 28.3418 171.718 28.3418C171.331 28.3418 170.987 28.4407 170.685 28.6386C170.384 28.8365 170.13 29.1247 169.924 29.5032C169.726 29.8732 169.576 30.3335 169.472 30.8841C169.369 31.4261 169.317 32.0499 169.317 32.7554V33.3619C169.317 34.0674 169.369 34.6955 169.472 35.2461C169.576 35.7881 169.73 36.2527 169.937 36.6399C170.152 37.027 170.406 37.3195 170.698 37.5174C170.999 37.7153 171.348 37.8142 171.744 37.8142C172.114 37.8142 172.445 37.7153 172.737 37.5174C173.038 37.3195 173.288 37.027 173.486 36.6399C173.692 36.2527 173.851 35.7881 173.963 35.2461C174.075 34.6955 174.131 34.0674 174.131 33.3619ZM187.011 25.5542H190.624V35.3106C190.624 36.4893 190.396 37.4873 189.94 38.3046C189.493 39.122 188.865 39.7414 188.056 40.163C187.247 40.5846 186.301 40.7954 185.217 40.7954C184.133 40.7954 183.182 40.5889 182.365 40.1759C181.547 39.7543 180.911 39.1349 180.455 38.3175C179.999 37.4916 179.771 36.4893 179.771 35.3106V25.5542H183.384V35.3106C183.384 35.8956 183.449 36.3731 183.578 36.7431C183.715 37.113 183.922 37.3841 184.197 37.5561C184.473 37.7196 184.808 37.8013 185.204 37.8013C185.617 37.8013 185.952 37.7153 186.21 37.5432C186.477 37.3712 186.675 37.1044 186.804 36.7431C186.942 36.3731 187.011 35.8956 187.011 35.3106V25.5542ZM199.851 25.5542V40.5889H196.225V25.5542H199.851ZM203.8 25.5542V28.5612H192.366V25.5542H203.8Z" fill="#B6F6FF"/>
<path d="M145.094 29.6065L141.92 40.5889H138.293L143.275 25.5542H145.714L145.094 29.6065ZM148.037 40.5889L144.797 29.6194L144.165 25.5542H146.669L151.676 40.5889H148.037ZM148.282 34.988V37.711H141.184V34.988H148.282ZM158.735 34.3298H155.38L155.354 31.8004H158.4C158.752 31.8004 159.041 31.7445 159.264 31.6326C159.497 31.5122 159.669 31.3358 159.78 31.1035C159.892 30.8626 159.948 30.5701 159.948 30.2259C159.948 29.8302 159.892 29.5118 159.78 29.2709C159.677 29.0214 159.514 28.8408 159.29 28.7289C159.075 28.6171 158.804 28.5612 158.477 28.5612H156.696V40.5889H153.083V25.5542H158.18C159.023 25.5542 159.78 25.6403 160.452 25.8123C161.123 25.9844 161.69 26.2425 162.155 26.5866C162.62 26.9308 162.972 27.3653 163.213 27.8901C163.463 28.4063 163.587 29.0128 163.587 29.7097C163.587 30.3206 163.458 30.9013 163.2 31.4519C162.951 32.0026 162.538 32.4499 161.961 32.7941C161.385 33.1382 160.606 33.306 159.626 33.2974L158.735 34.3298ZM158.606 40.5889H154.451L155.741 37.5948H158.606C159.01 37.5948 159.324 37.5217 159.548 37.3755C159.772 37.2206 159.931 37.0227 160.026 36.7818C160.129 36.5409 160.18 36.2828 160.18 36.0075C160.18 35.6548 160.133 35.3579 160.039 35.117C159.944 34.8675 159.793 34.674 159.587 34.5363C159.38 34.3986 159.096 34.3298 158.735 34.3298H155.896L155.909 31.8004H159.238L160.09 32.8328C161.054 32.7554 161.802 32.893 162.336 33.2458C162.869 33.5899 163.248 34.0416 163.471 34.6008C163.695 35.16 163.807 35.7193 163.807 36.2785C163.807 37.027 163.695 37.6723 163.471 38.2143C163.256 38.7563 162.929 39.2037 162.491 39.5564C162.06 39.9006 161.518 40.1587 160.864 40.3308C160.219 40.5028 159.466 40.5889 158.606 40.5889ZM177.757 32.7941V33.3619C177.757 34.5062 177.607 35.5386 177.306 36.4592C177.013 37.3712 176.6 38.1541 176.067 38.8079C175.533 39.4532 174.897 39.9479 174.157 40.292C173.426 40.6276 172.621 40.7954 171.744 40.7954C170.857 40.7954 170.044 40.6276 169.305 40.292C168.573 39.9479 167.937 39.4532 167.395 38.8079C166.853 38.1541 166.431 37.3712 166.13 36.4592C165.829 35.5386 165.678 34.5062 165.678 33.3619V32.7941C165.678 31.6412 165.829 30.6088 166.13 29.6968C166.431 28.7762 166.848 27.9933 167.382 27.3481C167.924 26.7028 168.56 26.2081 169.292 25.864C170.023 25.5198 170.832 25.3477 171.718 25.3477C172.587 25.3477 173.391 25.5198 174.131 25.864C174.88 26.2081 175.525 26.7028 176.067 27.3481C176.609 27.9933 177.026 28.7762 177.319 29.6968C177.611 30.6088 177.757 31.6412 177.757 32.7941ZM174.131 33.3619V32.7554C174.131 32.0499 174.075 31.4261 173.963 30.8841C173.851 30.3335 173.692 29.8689 173.486 29.4903C173.279 29.1118 173.026 28.8279 172.724 28.6386C172.432 28.4407 172.096 28.3418 171.718 28.3418C171.331 28.3418 170.987 28.4407 170.685 28.6386C170.384 28.8365 170.13 29.1247 169.924 29.5032C169.726 29.8732 169.576 30.3335 169.472 30.8841C169.369 31.4261 169.317 32.0499 169.317 32.7554V33.3619C169.317 34.0674 169.369 34.6955 169.472 35.2461C169.576 35.7881 169.73 36.2527 169.937 36.6399C170.152 37.027 170.406 37.3195 170.698 37.5174C170.999 37.7153 171.348 37.8142 171.744 37.8142C172.114 37.8142 172.445 37.7153 172.737 37.5174C173.038 37.3195 173.288 37.027 173.486 36.6399C173.692 36.2527 173.851 35.7881 173.963 35.2461C174.075 34.6955 174.131 34.0674 174.131 33.3619ZM187.011 25.5542H190.624V35.3106C190.624 36.4893 190.396 37.4873 189.94 38.3046C189.493 39.122 188.865 39.7414 188.056 40.163C187.247 40.5846 186.301 40.7954 185.217 40.7954C184.133 40.7954 183.182 40.5889 182.365 40.1759C181.547 39.7543 180.911 39.1349 180.455 38.3175C179.999 37.4916 179.771 36.4893 179.771 35.3106V25.5542H183.384V35.3106C183.384 35.8956 183.449 36.3731 183.578 36.7431C183.715 37.113 183.922 37.3841 184.197 37.5561C184.473 37.7196 184.808 37.8013 185.204 37.8013C185.617 37.8013 185.952 37.7153 186.21 37.5432C186.477 37.3712 186.675 37.1044 186.804 36.7431C186.942 36.3731 187.011 35.8956 187.011 35.3106V25.5542ZM199.851 25.5542V40.5889H196.225V25.5542H199.851ZM203.8 25.5542V28.5612H192.366V25.5542H203.8Z" fill="url(#paint0_linear_604_25)"/>
</g>
<rect opacity="0.8" x="-61" y="1" width="394" height="1" fill="url(#paint1_linear_604_25)"/>
<rect opacity="0.8" x="-61" y="64" width="394" height="1" fill="url(#paint2_linear_604_25)"/>
</g>
<defs>
<filter id="filter0_b_604_25" x="-10" y="-9" width="417" height="94" filterUnits="userSpaceOnUse" color-interpolation-filters="sRGB">
<feFlood flood-opacity="0" result="BackgroundImageFix"/>
<feGaussianBlur in="BackgroundImageFix" stdDeviation="5.5"/>
<feComposite in2="SourceAlpha" operator="in" result="effect1_backgroundBlur_604_25"/>
<feBlend mode="normal" in="SourceGraphic" in2="effect1_backgroundBlur_604_25" result="shape"/>
</filter>
<filter id="filter1_dddd_604_25" x="134.134" y="19.1089" width="77.9848" height="27.9253" filterUnits="userSpaceOnUse" color-interpolation-filters="sRGB">
<feFlood flood-opacity="0" result="BackgroundImageFix"/>
<feColorMatrix in="SourceAlpha" type="matrix" values="0 0 0 0 0 0 0 0 0 0 0 0 0 0 0 0 0 0 127 0" result="hardAlpha"/>
<feOffset dy="2.07958"/>
<feGaussianBlur stdDeviation="2.07958"/>
<feColorMatrix type="matrix" values="0 0 0 0 0 0 0 0 0 0 0 0 0 0 0 0 0 0 0.2 0"/>
<feBlend mode="overlay" in2="BackgroundImageFix" result="effect1_dropShadow_604_25"/>
<feColorMatrix in="SourceAlpha" type="matrix" values="0 0 0 0 0 0 0 0 0 0 0 0 0 0 0 0 0 0 127 0" result="hardAlpha"/>
<feOffset dy="2.07958"/>
<feGaussianBlur stdDeviation="1.03979"/>
<feColorMatrix type="matrix" values="0 0 0 0 0 0 0 0 0 0 0 0 0 0 0 0 0 0 0.22 0"/>
<feBlend mode="overlay" in2="effect1_dropShadow_604_25" result="effect2_dropShadow_604_25"/>
<feColorMatrix in="SourceAlpha" type="matrix" values="0 0 0 0 0 0 0 0 0 0 0 0 0 0 0 0 0 0 127 0" result="hardAlpha"/>
<feOffset dy="2.07958"/>
<feGaussianBlur stdDeviation="2.07958"/>
<feColorMatrix type="matrix" values="0 0 0 0 0 0 0 0 0 0 0 0 0 0 0 0 0 0 0.24 0"/>
<feBlend mode="overlay" in2="effect2_dropShadow_604_25" result="effect3_dropShadow_604_25"/>
<feColorMatrix in="SourceAlpha" type="matrix" values="0 0 0 0 0 0 0 0 0 0 0 0 0 0 0 0 0 0 127 0" result="hardAlpha"/>
<feOffset dx="2.07958"/>
<feGaussianBlur stdDeviation="3.11938"/>
<feColorMatrix type="matrix" values="0 0 0 0 0 0 0 0 0 0 0 0 0 0 0 0 0 0 0.35 0"/>
<feBlend mode="normal" in2="effect3_dropShadow_604_25" result="effect4_dropShadow_604_25"/>
<feBlend mode="normal" in="SourceGraphic" in2="effect4_dropShadow_604_25" result="shape"/>
</filter>
<linearGradient id="paint0_linear_604_25" x1="171.253" y1="12.5889" x2="171.253" y2="50.7222" gradientUnits="userSpaceOnUse">
<stop stop-color="white"/>
<stop offset="1" stop-color="white" stop-opacity="0"/>
</linearGradient>
<linearGradient id="paint1_linear_604_25" x1="330.806" y1="1" x2="-61.9904" y2="1" gradientUnits="userSpaceOnUse">
<stop stop-color="#425180" stop-opacity="0"/>
<stop offset="0.492063" stop-color="#425180"/>
<stop offset="1" stop-color="#425180" stop-opacity="0"/>
</linearGradient>
<linearGradient id="paint2_linear_604_25" x1="330.806" y1="64" x2="-61.9904" y2="64" gradientUnits="userSpaceOnUse">
<stop stop-color="#425180" stop-opacity="0"/>
<stop offset="0.492063" stop-color="#425180"/>
<stop offset="1" stop-color="#425180" stop-opacity="0"/>
</linearGradient>
<clipPath id="clip0_604_25">
<rect width="343" height="65" fill="white"/>
</clipPath>
</defs>
</svg>
