<svg width="11" height="12" viewBox="0 0 11 12" fill="none" xmlns="http://www.w3.org/2000/svg">
<path d="M3.24812 3.375V4.5H6.85714V3.375C6.85714 2.33906 6.04962 1.5 5.05263 1.5C4.05564 1.5 3.24812 2.33906 3.24812 3.375ZM1.80451 4.5V3.375C1.80451 1.51172 3.2594 0 5.05263 0C6.84586 0 8.30075 1.51172 8.30075 3.375V4.5H8.66165C9.45789 4.5 10.1053 5.17266 10.1053 6V10.5C10.1053 11.3273 9.45789 12 8.66165 12H1.44361C0.647368 12 0 11.3273 0 10.5V6C0 5.17266 0.647368 4.5 1.44361 4.5H1.80451Z" fill="#9799A5"/>
</svg>
