<svg width="397" height="75" viewBox="0 0 397 75" fill="none" xmlns="http://www.w3.org/2000/svg">
<g clip-path="url(#clip0_604_12)">
<g filter="url(#filter0_b_604_12)">
<path d="M1 74H396V2H1V74Z" fill="black" fill-opacity="0.3"/>
</g>
<g filter="url(#filter1_dddd_604_12)">
<path d="M164.053 43.805C164.053 43.476 164.005 43.1714 163.907 42.8911C163.822 42.6109 163.67 42.3611 163.45 42.1417C163.231 41.9102 162.932 41.697 162.555 41.502C162.189 41.3071 161.72 41.1182 161.147 40.9354C159.99 40.6186 158.99 40.2713 158.15 39.8936C157.321 39.5037 156.633 39.0528 156.084 38.541C155.548 38.0293 155.146 37.42 154.878 36.7133C154.622 36.0065 154.494 35.1719 154.494 34.2093C154.494 33.2832 154.665 32.4363 155.006 31.6687C155.347 30.8888 155.828 30.2247 156.45 29.6764C157.084 29.1281 157.821 28.7016 158.661 28.397C159.514 28.0923 160.447 27.94 161.458 27.94C162.932 27.94 164.236 28.2081 165.369 28.7442C166.515 29.2682 167.404 30.0237 168.038 31.0107C168.684 31.9855 169.007 33.1674 169.007 34.5565H163.889C163.889 34.0813 163.797 33.6366 163.615 33.2223C163.432 32.808 163.164 32.4729 162.811 32.217C162.457 31.9611 162.012 31.8332 161.476 31.8332C160.964 31.8332 160.55 31.9428 160.233 32.1622C159.917 32.3815 159.691 32.6617 159.557 33.0029C159.423 33.3319 159.356 33.667 159.356 34.0082C159.356 34.3128 159.405 34.5931 159.502 34.849C159.612 35.0927 159.783 35.3181 160.014 35.5252C160.246 35.7202 160.544 35.9091 160.91 36.0918C161.275 36.2624 161.714 36.4391 162.226 36.6219C163.371 36.9143 164.358 37.2616 165.187 37.6637C166.027 38.0536 166.722 38.5289 167.27 39.0894C167.831 39.6377 168.245 40.2896 168.513 41.0451C168.781 41.7884 168.915 42.6535 168.915 43.6405C168.915 44.6275 168.751 45.5048 168.422 46.2725C168.093 47.0279 167.618 47.6737 166.996 48.2099C166.375 48.7338 165.619 49.136 164.73 49.4162C163.852 49.6843 162.865 49.8183 161.769 49.8183C160.782 49.8183 159.819 49.6843 158.881 49.4162C157.955 49.1481 157.114 48.7338 156.359 48.1733C155.603 47.6006 155 46.8695 154.549 45.98C154.098 45.0783 153.873 44 153.873 42.7449H159.027C159.027 43.3054 159.076 43.7867 159.173 44.1888C159.271 44.5909 159.435 44.9199 159.667 45.1758C159.91 45.4317 160.221 45.6267 160.599 45.7607C160.989 45.8825 161.464 45.9435 162.025 45.9435C162.597 45.9435 163.03 45.8338 163.322 45.6145C163.615 45.3951 163.81 45.121 163.907 44.792C164.005 44.4508 164.053 44.1218 164.053 43.805ZM181.874 28.2325V49.5259H176.738V28.2325H181.874ZM187.467 28.2325V32.4912H171.273V28.2325H187.467ZM198.232 33.9716L193.736 49.5259H188.6L195.655 28.2325H199.11L198.232 33.9716ZM202.4 49.5259L197.812 33.9899L196.917 28.2325H200.462L207.554 49.5259H202.4ZM202.747 41.5934V45.45H192.694V41.5934H202.747ZM209.546 28.2325H217.241C218.399 28.2325 219.428 28.3726 220.33 28.6529C221.232 28.9209 222.006 29.323 222.651 29.8592C223.297 30.3953 223.791 31.0655 224.132 31.8697C224.473 32.6617 224.644 33.5817 224.644 34.6296C224.644 35.8847 224.473 36.9265 224.132 37.7551C223.791 38.5837 223.322 39.26 222.724 39.7839C222.127 40.2957 221.427 40.7344 220.623 41.0999L218.959 42.1783H212.836L212.8 37.9196H217.15C217.674 37.9196 218.112 37.816 218.466 37.6089C218.819 37.4017 219.081 37.091 219.252 36.6767C219.435 36.2502 219.526 35.7507 219.526 35.178C219.526 34.6053 219.441 34.1179 219.27 33.7158C219.112 33.3136 218.862 33.009 218.521 32.8019C218.179 32.5947 217.753 32.4912 217.241 32.4912H214.682V49.5259H209.546V28.2325ZM219.782 49.5259L215.688 40.1312L221.116 40.0764L225.302 49.3065V49.5259H219.782ZM237.292 28.2325V49.5259H232.156V28.2325H237.292ZM242.885 28.2325V32.4912H226.691V28.2325H242.885Z" fill="#B6F6FF"/>
<path d="M164.053 43.805C164.053 43.476 164.005 43.1714 163.907 42.8911C163.822 42.6109 163.67 42.3611 163.45 42.1417C163.231 41.9102 162.932 41.697 162.555 41.502C162.189 41.3071 161.72 41.1182 161.147 40.9354C159.99 40.6186 158.99 40.2713 158.15 39.8936C157.321 39.5037 156.633 39.0528 156.084 38.541C155.548 38.0293 155.146 37.42 154.878 36.7133C154.622 36.0065 154.494 35.1719 154.494 34.2093C154.494 33.2832 154.665 32.4363 155.006 31.6687C155.347 30.8888 155.828 30.2247 156.45 29.6764C157.084 29.1281 157.821 28.7016 158.661 28.397C159.514 28.0923 160.447 27.94 161.458 27.94C162.932 27.94 164.236 28.2081 165.369 28.7442C166.515 29.2682 167.404 30.0237 168.038 31.0107C168.684 31.9855 169.007 33.1674 169.007 34.5565H163.889C163.889 34.0813 163.797 33.6366 163.615 33.2223C163.432 32.808 163.164 32.4729 162.811 32.217C162.457 31.9611 162.012 31.8332 161.476 31.8332C160.964 31.8332 160.55 31.9428 160.233 32.1622C159.917 32.3815 159.691 32.6617 159.557 33.0029C159.423 33.3319 159.356 33.667 159.356 34.0082C159.356 34.3128 159.405 34.5931 159.502 34.849C159.612 35.0927 159.783 35.3181 160.014 35.5252C160.246 35.7202 160.544 35.9091 160.91 36.0918C161.275 36.2624 161.714 36.4391 162.226 36.6219C163.371 36.9143 164.358 37.2616 165.187 37.6637C166.027 38.0536 166.722 38.5289 167.27 39.0894C167.831 39.6377 168.245 40.2896 168.513 41.0451C168.781 41.7884 168.915 42.6535 168.915 43.6405C168.915 44.6275 168.751 45.5048 168.422 46.2725C168.093 47.0279 167.618 47.6737 166.996 48.2099C166.375 48.7338 165.619 49.136 164.73 49.4162C163.852 49.6843 162.865 49.8183 161.769 49.8183C160.782 49.8183 159.819 49.6843 158.881 49.4162C157.955 49.1481 157.114 48.7338 156.359 48.1733C155.603 47.6006 155 46.8695 154.549 45.98C154.098 45.0783 153.873 44 153.873 42.7449H159.027C159.027 43.3054 159.076 43.7867 159.173 44.1888C159.271 44.5909 159.435 44.9199 159.667 45.1758C159.91 45.4317 160.221 45.6267 160.599 45.7607C160.989 45.8825 161.464 45.9435 162.025 45.9435C162.597 45.9435 163.03 45.8338 163.322 45.6145C163.615 45.3951 163.81 45.121 163.907 44.792C164.005 44.4508 164.053 44.1218 164.053 43.805ZM181.874 28.2325V49.5259H176.738V28.2325H181.874ZM187.467 28.2325V32.4912H171.273V28.2325H187.467ZM198.232 33.9716L193.736 49.5259H188.6L195.655 28.2325H199.11L198.232 33.9716ZM202.4 49.5259L197.812 33.9899L196.917 28.2325H200.462L207.554 49.5259H202.4ZM202.747 41.5934V45.45H192.694V41.5934H202.747ZM209.546 28.2325H217.241C218.399 28.2325 219.428 28.3726 220.33 28.6529C221.232 28.9209 222.006 29.323 222.651 29.8592C223.297 30.3953 223.791 31.0655 224.132 31.8697C224.473 32.6617 224.644 33.5817 224.644 34.6296C224.644 35.8847 224.473 36.9265 224.132 37.7551C223.791 38.5837 223.322 39.26 222.724 39.7839C222.127 40.2957 221.427 40.7344 220.623 41.0999L218.959 42.1783H212.836L212.8 37.9196H217.15C217.674 37.9196 218.112 37.816 218.466 37.6089C218.819 37.4017 219.081 37.091 219.252 36.6767C219.435 36.2502 219.526 35.7507 219.526 35.178C219.526 34.6053 219.441 34.1179 219.27 33.7158C219.112 33.3136 218.862 33.009 218.521 32.8019C218.179 32.5947 217.753 32.4912 217.241 32.4912H214.682V49.5259H209.546V28.2325ZM219.782 49.5259L215.688 40.1312L221.116 40.0764L225.302 49.3065V49.5259H219.782ZM237.292 28.2325V49.5259H232.156V28.2325H237.292ZM242.885 28.2325V32.4912H226.691V28.2325H242.885Z" fill="url(#paint0_linear_604_12)"/>
</g>
<rect opacity="0.8" x="-61" y="1" width="394" height="1" fill="url(#paint1_linear_604_12)"/>
<rect opacity="0.8" x="-61" y="73" width="394" height="1" fill="url(#paint2_linear_604_12)"/>
</g>
<defs>
<filter id="filter0_b_604_12" x="-10" y="-9" width="417" height="94" filterUnits="userSpaceOnUse" color-interpolation-filters="sRGB">
<feFlood flood-opacity="0" result="BackgroundImageFix"/>
<feGaussianBlur in="BackgroundImageFix" stdDeviation="5.5"/>
<feComposite in2="SourceAlpha" operator="in" result="effect1_backgroundBlur_604_12"/>
<feBlend mode="normal" in="SourceGraphic" in2="effect1_backgroundBlur_604_12" result="shape"/>
</filter>
<filter id="filter1_dddd_604_12" x="149.713" y="21.7012" width="101.49" height="34.3559" filterUnits="userSpaceOnUse" color-interpolation-filters="sRGB">
<feFlood flood-opacity="0" result="BackgroundImageFix"/>
<feColorMatrix in="SourceAlpha" type="matrix" values="0 0 0 0 0 0 0 0 0 0 0 0 0 0 0 0 0 0 127 0" result="hardAlpha"/>
<feOffset dy="2.07958"/>
<feGaussianBlur stdDeviation="2.07958"/>
<feColorMatrix type="matrix" values="0 0 0 0 0 0 0 0 0 0 0 0 0 0 0 0 0 0 0.2 0"/>
<feBlend mode="overlay" in2="BackgroundImageFix" result="effect1_dropShadow_604_12"/>
<feColorMatrix in="SourceAlpha" type="matrix" values="0 0 0 0 0 0 0 0 0 0 0 0 0 0 0 0 0 0 127 0" result="hardAlpha"/>
<feOffset dy="2.07958"/>
<feGaussianBlur stdDeviation="1.03979"/>
<feColorMatrix type="matrix" values="0 0 0 0 0 0 0 0 0 0 0 0 0 0 0 0 0 0 0.22 0"/>
<feBlend mode="overlay" in2="effect1_dropShadow_604_12" result="effect2_dropShadow_604_12"/>
<feColorMatrix in="SourceAlpha" type="matrix" values="0 0 0 0 0 0 0 0 0 0 0 0 0 0 0 0 0 0 127 0" result="hardAlpha"/>
<feOffset dy="2.07958"/>
<feGaussianBlur stdDeviation="2.07958"/>
<feColorMatrix type="matrix" values="0 0 0 0 0 0 0 0 0 0 0 0 0 0 0 0 0 0 0.24 0"/>
<feBlend mode="overlay" in2="effect2_dropShadow_604_12" result="effect3_dropShadow_604_12"/>
<feColorMatrix in="SourceAlpha" type="matrix" values="0 0 0 0 0 0 0 0 0 0 0 0 0 0 0 0 0 0 127 0" result="hardAlpha"/>
<feOffset dx="2.07958"/>
<feGaussianBlur stdDeviation="3.11938"/>
<feColorMatrix type="matrix" values="0 0 0 0 0 0 0 0 0 0 0 0 0 0 0 0 0 0 0.35 0"/>
<feBlend mode="normal" in2="effect3_dropShadow_604_12" result="effect4_dropShadow_604_12"/>
<feBlend mode="normal" in="SourceGraphic" in2="effect4_dropShadow_604_12" result="shape"/>
</filter>
<linearGradient id="paint0_linear_604_12" x1="198.214" y1="14.5259" x2="198.214" y2="58.5259" gradientUnits="userSpaceOnUse">
<stop stop-color="white"/>
<stop offset="1" stop-color="white" stop-opacity="0"/>
</linearGradient>
<linearGradient id="paint1_linear_604_12" x1="330.806" y1="1" x2="-61.9904" y2="1" gradientUnits="userSpaceOnUse">
<stop stop-color="#425180" stop-opacity="0"/>
<stop offset="0.492063" stop-color="#425180"/>
<stop offset="1" stop-color="#425180" stop-opacity="0"/>
</linearGradient>
<linearGradient id="paint2_linear_604_12" x1="330.806" y1="73" x2="-61.9904" y2="73" gradientUnits="userSpaceOnUse">
<stop stop-color="#425180" stop-opacity="0"/>
<stop offset="0.492063" stop-color="#425180"/>
<stop offset="1" stop-color="#425180" stop-opacity="0"/>
</linearGradient>
<clipPath id="clip0_604_12">
<rect width="397" height="75" fill="white"/>
</clipPath>
</defs>
</svg>
