<svg width="25" height="25" viewBox="0 0 25 25" fill="none" xmlns="http://www.w3.org/2000/svg">
<path d="M24.6232 15.5238C22.9538 22.2203 16.1713 26.2957 9.474 24.6258C2.77951 22.9563 -1.29584 16.1734 0.374357 9.47747C2.04309 2.78024 8.82555 -1.29542 15.5208 0.374043C22.2176 2.04351 26.2927 8.82713 24.623 15.5239L24.6232 15.5238H24.6232Z" fill="#245959" />
<path fill-rule="evenodd" clip-rule="evenodd" d="M14.0818 13.9172C13.9934 13.9238 13.5367 13.9511 12.5181 13.9511C11.7079 13.9511 11.1326 13.9268 10.9308 13.9172C7.79973 13.7795 5.46265 13.2344 5.46265 12.5818C5.46265 11.9293 7.79973 11.385 10.9308 11.245V13.3744C11.1356 13.3891 11.7219 13.4237 12.5321 13.4237C13.5043 13.4237 13.9912 13.3832 14.0788 13.3751V11.2465C17.2033 11.3857 19.5352 11.9307 19.5352 12.5818C19.5352 13.233 17.204 13.778 14.0788 13.9165L14.0818 13.9172ZM14.0818 11.0263V9.12079H18.4422V6.21509H6.57043V9.12079H10.9301V11.0255C7.38653 11.1883 4.72168 11.8902 4.72168 12.7314C4.72168 13.5725 7.38653 14.2737 10.9301 14.4372V20.5433H14.0811V14.435C17.6165 14.2722 20.2769 13.571 20.2769 12.7306C20.2769 11.8902 17.6187 11.189 14.0811 11.0255L14.0818 11.0263Z" fill="white"/>
</svg>
