<svg width="355" height="73" viewBox="0 0 355 73" fill="none" xmlns="http://www.w3.org/2000/svg">
<g filter="url(#filter0_b_618_59)">
<path d="M0.319336 73H354.09V1H0.319336V73Z" fill="black" fill-opacity="0.3"/>
</g>
<g filter="url(#filter1_dddd_618_59)">
<path d="M159.256 39.6608H154.504L154.467 36.0783H158.781C159.281 36.0783 159.689 35.9991 160.006 35.8407C160.335 35.6701 160.578 35.4204 160.737 35.0914C160.895 34.7502 160.974 34.3359 160.974 33.8485C160.974 33.288 160.895 32.8371 160.737 32.4959C160.59 32.1426 160.359 31.8867 160.042 31.7283C159.737 31.5699 159.354 31.4907 158.891 31.4907H156.368V48.5254H151.251V27.232H158.47C159.664 27.232 160.737 27.3538 161.687 27.5975C162.637 27.8412 163.442 28.2068 164.1 28.6942C164.758 29.1816 165.257 29.7969 165.598 30.5402C165.952 31.2713 166.129 32.1304 166.129 33.1174C166.129 33.9825 165.946 34.805 165.58 35.5849C165.227 36.3647 164.642 36.9983 163.826 37.4857C163.009 37.9731 161.906 38.2107 160.517 38.1985L159.256 39.6608ZM159.073 48.5254H153.188L155.016 44.285H159.073C159.646 44.285 160.091 44.1814 160.408 43.9743C160.724 43.7549 160.95 43.4747 161.084 43.1335C161.23 42.7923 161.303 42.4268 161.303 42.0368C161.303 41.5373 161.236 41.1169 161.102 40.7757C160.968 40.4223 160.755 40.1482 160.462 39.9532C160.17 39.7582 159.768 39.6608 159.256 39.6608H155.235L155.253 36.0783H159.969L161.175 37.5406C162.54 37.4309 163.6 37.6258 164.356 38.1254C165.111 38.6128 165.647 39.2526 165.964 40.0446C166.281 40.8366 166.439 41.6286 166.439 42.4207C166.439 43.4808 166.281 44.3947 165.964 45.1623C165.659 45.93 165.196 46.5636 164.575 47.0632C163.966 47.5506 163.198 47.9161 162.272 48.1598C161.358 48.4035 160.292 48.5254 159.073 48.5254ZM179.782 27.232H184.9V41.0499C184.9 42.7192 184.577 44.1327 183.931 45.2903C183.297 46.4478 182.408 47.3252 181.262 47.9222C180.117 48.5193 178.777 48.8178 177.241 48.8178C175.706 48.8178 174.36 48.5254 173.202 47.9405C172.044 47.3434 171.143 46.4661 170.497 45.3085C169.851 44.1388 169.528 42.7192 169.528 41.0499V27.232H174.646V41.0499C174.646 41.8784 174.737 42.5547 174.92 43.0787C175.115 43.6026 175.407 43.9865 175.797 44.2302C176.187 44.4617 176.663 44.5774 177.223 44.5774C177.808 44.5774 178.283 44.4556 178.649 44.2119C179.026 43.9682 179.307 43.5904 179.489 43.0787C179.684 42.5547 179.782 41.8784 179.782 41.0499V27.232ZM194.239 38.6555L198.553 27.232H204.109L197.676 41.6165H194.952L194.239 38.6555ZM192.339 27.232L196.707 38.7652L195.921 41.6165H193.216L186.782 27.232H192.339ZM197.932 38.4727V48.5254H192.796V38.4727H197.932Z" fill="#B6F6FF"/>
<path d="M159.256 39.6608H154.504L154.467 36.0783H158.781C159.281 36.0783 159.689 35.9991 160.006 35.8407C160.335 35.6701 160.578 35.4204 160.737 35.0914C160.895 34.7502 160.974 34.3359 160.974 33.8485C160.974 33.288 160.895 32.8371 160.737 32.4959C160.59 32.1426 160.359 31.8867 160.042 31.7283C159.737 31.5699 159.354 31.4907 158.891 31.4907H156.368V48.5254H151.251V27.232H158.47C159.664 27.232 160.737 27.3538 161.687 27.5975C162.637 27.8412 163.442 28.2068 164.1 28.6942C164.758 29.1816 165.257 29.7969 165.598 30.5402C165.952 31.2713 166.129 32.1304 166.129 33.1174C166.129 33.9825 165.946 34.805 165.58 35.5849C165.227 36.3647 164.642 36.9983 163.826 37.4857C163.009 37.9731 161.906 38.2107 160.517 38.1985L159.256 39.6608ZM159.073 48.5254H153.188L155.016 44.285H159.073C159.646 44.285 160.091 44.1814 160.408 43.9743C160.724 43.7549 160.95 43.4747 161.084 43.1335C161.23 42.7923 161.303 42.4268 161.303 42.0368C161.303 41.5373 161.236 41.1169 161.102 40.7757C160.968 40.4223 160.755 40.1482 160.462 39.9532C160.17 39.7582 159.768 39.6608 159.256 39.6608H155.235L155.253 36.0783H159.969L161.175 37.5406C162.54 37.4309 163.6 37.6258 164.356 38.1254C165.111 38.6128 165.647 39.2526 165.964 40.0446C166.281 40.8366 166.439 41.6286 166.439 42.4207C166.439 43.4808 166.281 44.3947 165.964 45.1623C165.659 45.93 165.196 46.5636 164.575 47.0632C163.966 47.5506 163.198 47.9161 162.272 48.1598C161.358 48.4035 160.292 48.5254 159.073 48.5254ZM179.782 27.232H184.9V41.0499C184.9 42.7192 184.577 44.1327 183.931 45.2903C183.297 46.4478 182.408 47.3252 181.262 47.9222C180.117 48.5193 178.777 48.8178 177.241 48.8178C175.706 48.8178 174.36 48.5254 173.202 47.9405C172.044 47.3434 171.143 46.4661 170.497 45.3085C169.851 44.1388 169.528 42.7192 169.528 41.0499V27.232H174.646V41.0499C174.646 41.8784 174.737 42.5547 174.92 43.0787C175.115 43.6026 175.407 43.9865 175.797 44.2302C176.187 44.4617 176.663 44.5774 177.223 44.5774C177.808 44.5774 178.283 44.4556 178.649 44.2119C179.026 43.9682 179.307 43.5904 179.489 43.0787C179.684 42.5547 179.782 41.8784 179.782 41.0499V27.232ZM194.239 38.6555L198.553 27.232H204.109L197.676 41.6165H194.952L194.239 38.6555ZM192.339 27.232L196.707 38.7652L195.921 41.6165H193.216L186.782 27.232H192.339ZM197.932 38.4727V48.5254H192.796V38.4727H197.932Z" fill="url(#paint0_linear_618_59)"/>
</g>
<rect opacity="0.8" x="0.319336" width="352.875" height="1" fill="url(#paint1_linear_618_59)"/>
<rect opacity="0.8" x="0.319336" y="72" width="352.875" height="1" fill="url(#paint2_linear_618_59)"/>
<defs>
<filter id="filter0_b_618_59" x="-10.6807" y="-10" width="375.771" height="94" filterUnits="userSpaceOnUse" color-interpolation-filters="sRGB">
<feFlood flood-opacity="0" result="BackgroundImageFix"/>
<feGaussianBlur in="BackgroundImageFix" stdDeviation="5.5"/>
<feComposite in2="SourceAlpha" operator="in" result="effect1_backgroundBlur_618_59"/>
<feBlend mode="normal" in="SourceGraphic" in2="effect1_backgroundBlur_618_59" result="shape"/>
</filter>
<filter id="filter1_dddd_618_59" x="147.092" y="20.9937" width="65.3359" height="34.0634" filterUnits="userSpaceOnUse" color-interpolation-filters="sRGB">
<feFlood flood-opacity="0" result="BackgroundImageFix"/>
<feColorMatrix in="SourceAlpha" type="matrix" values="0 0 0 0 0 0 0 0 0 0 0 0 0 0 0 0 0 0 127 0" result="hardAlpha"/>
<feOffset dy="2.07958"/>
<feGaussianBlur stdDeviation="2.07958"/>
<feColorMatrix type="matrix" values="0 0 0 0 0 0 0 0 0 0 0 0 0 0 0 0 0 0 0.2 0"/>
<feBlend mode="overlay" in2="BackgroundImageFix" result="effect1_dropShadow_618_59"/>
<feColorMatrix in="SourceAlpha" type="matrix" values="0 0 0 0 0 0 0 0 0 0 0 0 0 0 0 0 0 0 127 0" result="hardAlpha"/>
<feOffset dy="2.07958"/>
<feGaussianBlur stdDeviation="1.03979"/>
<feColorMatrix type="matrix" values="0 0 0 0 0 0 0 0 0 0 0 0 0 0 0 0 0 0 0.22 0"/>
<feBlend mode="overlay" in2="effect1_dropShadow_618_59" result="effect2_dropShadow_618_59"/>
<feColorMatrix in="SourceAlpha" type="matrix" values="0 0 0 0 0 0 0 0 0 0 0 0 0 0 0 0 0 0 127 0" result="hardAlpha"/>
<feOffset dy="2.07958"/>
<feGaussianBlur stdDeviation="2.07958"/>
<feColorMatrix type="matrix" values="0 0 0 0 0 0 0 0 0 0 0 0 0 0 0 0 0 0 0.24 0"/>
<feBlend mode="overlay" in2="effect2_dropShadow_618_59" result="effect3_dropShadow_618_59"/>
<feColorMatrix in="SourceAlpha" type="matrix" values="0 0 0 0 0 0 0 0 0 0 0 0 0 0 0 0 0 0 127 0" result="hardAlpha"/>
<feOffset dx="2.07958"/>
<feGaussianBlur stdDeviation="3.11938"/>
<feColorMatrix type="matrix" values="0 0 0 0 0 0 0 0 0 0 0 0 0 0 0 0 0 0 0.35 0"/>
<feBlend mode="normal" in2="effect3_dropShadow_618_59" result="effect4_dropShadow_618_59"/>
<feBlend mode="normal" in="SourceGraphic" in2="effect4_dropShadow_618_59" result="shape"/>
</filter>
<linearGradient id="paint0_linear_618_59" x1="176.949" y1="13.5254" x2="176.949" y2="57.5254" gradientUnits="userSpaceOnUse">
<stop stop-color="white"/>
<stop offset="1" stop-color="white" stop-opacity="0"/>
</linearGradient>
<linearGradient id="paint1_linear_618_59" x1="351.23" y1="0" x2="-0.567727" y2="0" gradientUnits="userSpaceOnUse">
<stop stop-color="#425180" stop-opacity="0"/>
<stop offset="0.492063" stop-color="#425180"/>
<stop offset="1" stop-color="#425180" stop-opacity="0"/>
</linearGradient>
<linearGradient id="paint2_linear_618_59" x1="351.23" y1="72" x2="-0.567727" y2="72" gradientUnits="userSpaceOnUse">
<stop stop-color="#425180" stop-opacity="0"/>
<stop offset="0.492063" stop-color="#425180"/>
<stop offset="1" stop-color="#425180" stop-opacity="0"/>
</linearGradient>
</defs>
</svg>
