<svg width="22" height="22" viewBox="0 0 22 22" fill="none" xmlns="http://www.w3.org/2000/svg">
<path d="M5.26174 14.6663C5.36257 14.2172 5.17924 13.5755 4.85841 13.2547L2.63091 11.0272C1.93424 10.3305 1.65924 9.58801 1.86091 8.94634C2.07174 8.30467 2.72257 7.86467 3.69424 7.69967L6.55424 7.22301C6.96674 7.14967 7.47091 6.78301 7.66341 6.40717L9.24007 3.24467C9.69841 2.33717 10.3217 1.83301 11.0001 1.83301C11.6784 1.83301 12.3017 2.33717 12.7601 3.24467L14.3367 6.40717C14.4559 6.64551 14.7034 6.87467 14.9692 7.03051L5.09674 16.903C4.96841 17.0313 4.74841 16.9122 4.78507 16.7288L5.26174 14.6663Z" fill="white" fill-opacity="0.13"/>
<path d="M17.1419 13.2547C16.8119 13.5847 16.6286 14.2172 16.7386 14.6664L17.3711 17.4256C17.6369 18.5714 17.4719 19.4331 16.9036 19.8456C16.6744 20.0106 16.3994 20.0931 16.0786 20.0931C15.6111 20.0931 15.0611 19.9189 14.4561 19.5614L11.7702 17.9664C11.3486 17.7189 10.6519 17.7189 10.2302 17.9664L7.54439 19.5614C6.52689 20.1572 5.65606 20.2581 5.09689 19.8456C4.88606 19.6897 4.73023 19.4789 4.62939 19.2039L15.7761 8.05724C16.1977 7.63558 16.7936 7.44308 17.3711 7.54391L18.2969 7.69974C19.2686 7.86474 19.9194 8.30474 20.1302 8.94641C20.3319 9.58808 20.0569 10.3306 19.3602 11.0272L17.1419 13.2547Z" fill="#BABABA" fill-opacity="0.15"/>
</svg>
