<svg width="190" height="184" viewBox="0 0 190 184" fill="none" xmlns="http://www.w3.org/2000/svg">
<g filter="url(#filter0_d_167_1019)">
<rect x="23" y="96" width="67" height="67" rx="20" fill="#245959"/>
<path fill-rule="evenodd" clip-rule="evenodd" d="M38.1641 129.146C47.93 124.892 54.4422 122.086 57.7005 120.731C67.0038 116.862 68.937 116.189 70.197 116.167C70.4741 116.162 71.0938 116.231 71.4951 116.557C71.834 116.832 71.9273 117.203 71.9719 117.464C72.0165 117.725 72.0721 118.319 72.0279 118.783C71.5238 124.08 69.3423 136.935 68.2325 142.868C67.7629 145.378 66.8383 146.22 65.9431 146.302C63.9977 146.481 62.5204 145.016 60.6362 143.781C57.6878 141.849 56.0221 140.645 53.1601 138.759C49.8526 136.58 51.9968 135.382 53.8817 133.424C54.375 132.912 62.9465 125.115 63.1124 124.408C63.1331 124.32 63.1524 123.99 62.9565 123.816C62.7606 123.642 62.4715 123.701 62.2629 123.749C61.9672 123.816 57.257 126.929 48.1324 133.088C46.7955 134.006 45.5845 134.454 44.4995 134.43C43.3034 134.404 41.0025 133.754 39.292 133.198C37.1941 132.516 35.5267 132.155 35.6719 130.997C35.7475 130.394 36.5783 129.777 38.1641 129.146Z" fill="#B6F6FF"/>
<path fill-rule="evenodd" clip-rule="evenodd" d="M38.1641 129.146C47.93 124.892 54.4422 122.086 57.7005 120.731C67.0038 116.862 68.937 116.189 70.197 116.167C70.4741 116.162 71.0938 116.231 71.4951 116.557C71.834 116.832 71.9273 117.203 71.9719 117.464C72.0165 117.725 72.0721 118.319 72.0279 118.783C71.5238 124.08 69.3423 136.935 68.2325 142.868C67.7629 145.378 66.8383 146.22 65.9431 146.302C63.9977 146.481 62.5204 145.016 60.6362 143.781C57.6878 141.849 56.0221 140.645 53.1601 138.759C49.8526 136.58 51.9968 135.382 53.8817 133.424C54.375 132.912 62.9465 125.115 63.1124 124.408C63.1331 124.32 63.1524 123.99 62.9565 123.816C62.7606 123.642 62.4715 123.701 62.2629 123.749C61.9672 123.816 57.257 126.929 48.1324 133.088C46.7955 134.006 45.5845 134.454 44.4995 134.43C43.3034 134.404 41.0025 133.754 39.292 133.198C37.1941 132.516 35.5267 132.155 35.6719 130.997C35.7475 130.394 36.5783 129.777 38.1641 129.146Z" fill="url(#paint0_linear_167_1019)"/>
<rect x="23.5" y="96.5" width="66" height="66" rx="19.5" stroke="#9D9297"/>
</g>
<defs>
<filter id="filter0_d_167_1019" x="-77" y="0" width="267" height="267" filterUnits="userSpaceOnUse" color-interpolation-filters="sRGB">
<feFlood flood-opacity="0" result="BackgroundImageFix"/>
<feColorMatrix in="SourceAlpha" type="matrix" values="0 0 0 0 0 0 0 0 0 0 0 0 0 0 0 0 0 0 127 0" result="hardAlpha"/>
<feOffset dy="4"/>
<feGaussianBlur stdDeviation="50"/>
<feComposite in2="hardAlpha" operator="out"/>
<feColorMatrix type="matrix" values="0 0 0 0 0 0 0 0 0 0 0 0 0 0 0 0 0 0 0.9 0"/>
<feBlend mode="normal" in2="BackgroundImageFix" result="effect1_dropShadow_167_1019"/>
<feBlend mode="normal" in="SourceGraphic" in2="effect1_dropShadow_167_1019" result="shape"/>
</filter>
<linearGradient id="paint0_linear_167_1019" x1="53.8536" y1="116.167" x2="53.8536" y2="146.317" gradientUnits="userSpaceOnUse">
<stop stop-color="white"/>
<stop offset="1" stop-color="white" stop-opacity="0"/>
</linearGradient>
</defs>
</svg>
