<svg width="1512" height="26" viewBox="0 0 1512 26" fill="none" xmlns="http://www.w3.org/2000/svg">
<path d="M70 -97.4L-6.8 35H-35V27.4L42 -105H70V-97.4ZM130.078 -97.4L53.2781 35H25.0781V27.4L102.078 -105H130.078V-97.4ZM190.156 -97.4L113.356 35H85.1562V27.4L162.156 -105H190.156V-97.4ZM250.234 -97.4L173.434 35H145.234V27.4L222.234 -105H250.234V-97.4ZM310.313 -97.4L233.513 35H205.312V27.4L282.313 -105H310.313V-97.4ZM370.391 -97.4L293.591 35H265.391V27.4L342.391 -105H370.391V-97.4ZM430.469 -97.4L353.669 35H325.469V27.4L402.469 -105H430.469V-97.4ZM490.547 -97.4L413.747 35H385.547V27.4L462.547 -105H490.547V-97.4ZM550.625 -97.4L473.825 35H445.625V27.4L522.625 -105H550.625V-97.4ZM610.703 -97.4L533.903 35H505.703V27.4L582.703 -105H610.703V-97.4ZM670.781 -97.4L593.981 35H565.781V27.4L642.781 -105H670.781V-97.4ZM730.859 -97.4L654.059 35H625.859V27.4L702.859 -105H730.859V-97.4ZM790.938 -97.4L714.138 35H685.938V27.4L762.938 -105H790.938V-97.4ZM851.016 -97.4L774.216 35H746.016V27.4L823.016 -105H851.016V-97.4ZM911.094 -97.4L834.294 35H806.094V27.4L883.094 -105H911.094V-97.4ZM971.172 -97.4L894.372 35H866.172V27.4L943.172 -105H971.172V-97.4ZM1031.25 -97.4L954.45 35H926.25V27.4L1003.25 -105H1031.25V-97.4ZM1091.33 -97.4L1014.53 35H986.328V27.4L1063.33 -105H1091.33V-97.4ZM1151.41 -97.4L1074.61 35H1046.41V27.4L1123.41 -105H1151.41V-97.4ZM1211.48 -97.4L1134.68 35H1106.48V27.4L1183.48 -105H1211.48V-97.4ZM1271.56 -97.4L1194.76 35H1166.56V27.4L1243.56 -105H1271.56V-97.4ZM1331.64 -97.4L1254.84 35H1226.64V27.4L1303.64 -105H1331.64V-97.4ZM1391.72 -97.4L1314.92 35H1286.72V27.4L1363.72 -105H1391.72V-97.4ZM1451.8 -97.4L1375 35H1346.8V27.4L1423.8 -105H1451.8V-97.4ZM1511.88 -97.4L1435.08 35H1406.88V27.4L1483.88 -105H1511.88V-97.4ZM1571.95 -97.4L1495.15 35H1466.95V27.4L1543.95 -105H1571.95V-97.4ZM1632.03 -97.4L1555.23 35H1527.03V27.4L1604.03 -105H1632.03V-97.4Z" fill="url(#paint0_linear_269_14254)"/>
<path d="M70 -97.4L-6.8 35H-35V27.4L42 -105H70V-97.4ZM130.078 -97.4L53.2781 35H25.0781V27.4L102.078 -105H130.078V-97.4ZM190.156 -97.4L113.356 35H85.1562V27.4L162.156 -105H190.156V-97.4ZM250.234 -97.4L173.434 35H145.234V27.4L222.234 -105H250.234V-97.4ZM310.313 -97.4L233.513 35H205.312V27.4L282.313 -105H310.313V-97.4ZM370.391 -97.4L293.591 35H265.391V27.4L342.391 -105H370.391V-97.4ZM430.469 -97.4L353.669 35H325.469V27.4L402.469 -105H430.469V-97.4ZM490.547 -97.4L413.747 35H385.547V27.4L462.547 -105H490.547V-97.4ZM550.625 -97.4L473.825 35H445.625V27.4L522.625 -105H550.625V-97.4ZM610.703 -97.4L533.903 35H505.703V27.4L582.703 -105H610.703V-97.4ZM670.781 -97.4L593.981 35H565.781V27.4L642.781 -105H670.781V-97.4ZM730.859 -97.4L654.059 35H625.859V27.4L702.859 -105H730.859V-97.4ZM790.938 -97.4L714.138 35H685.938V27.4L762.938 -105H790.938V-97.4ZM851.016 -97.4L774.216 35H746.016V27.4L823.016 -105H851.016V-97.4ZM911.094 -97.4L834.294 35H806.094V27.4L883.094 -105H911.094V-97.4ZM971.172 -97.4L894.372 35H866.172V27.4L943.172 -105H971.172V-97.4ZM1031.25 -97.4L954.45 35H926.25V27.4L1003.25 -105H1031.25V-97.4ZM1091.33 -97.4L1014.53 35H986.328V27.4L1063.33 -105H1091.33V-97.4ZM1151.41 -97.4L1074.61 35H1046.41V27.4L1123.41 -105H1151.41V-97.4ZM1211.48 -97.4L1134.68 35H1106.48V27.4L1183.48 -105H1211.48V-97.4ZM1271.56 -97.4L1194.76 35H1166.56V27.4L1243.56 -105H1271.56V-97.4ZM1331.64 -97.4L1254.84 35H1226.64V27.4L1303.64 -105H1331.64V-97.4ZM1391.72 -97.4L1314.92 35H1286.72V27.4L1363.72 -105H1391.72V-97.4ZM1451.8 -97.4L1375 35H1346.8V27.4L1423.8 -105H1451.8V-97.4ZM1511.88 -97.4L1435.08 35H1406.88V27.4L1483.88 -105H1511.88V-97.4ZM1571.95 -97.4L1495.15 35H1466.95V27.4L1543.95 -105H1571.95V-97.4ZM1632.03 -97.4L1555.23 35H1527.03V27.4L1604.03 -105H1632.03V-97.4Z" fill="#7AA2AE"/>
<defs>
<linearGradient id="paint0_linear_269_14254" x1="763.925" y1="78" x2="764.954" y2="-45.6167" gradientUnits="userSpaceOnUse">
<stop stop-color="#BDFF00"/>
<stop offset="0.494792" stop-color="#EBFF00" stop-opacity="0.369639"/>
<stop offset="0.927083" stop-color="#FF5200" stop-opacity="0"/>
</linearGradient>
</defs>
</svg>
